PathFileType	4	(X/Y/Z)	C:\Users\ebm\Documents\Erivelton\Erivelton2\wc6.trc
DataRate	CameraRate	NumFrames	NumMarkers	Units	OrigDataRate	OrigDataStartFrame	OrigNumFrames
150.00	150.00	      10	28	mm	150.00	578	      1154
Frame#	Time	IJ			PX			C7			T8			RAC			RAS			RPS			RAI			RPI			RLE			RME			RRS			RUS			R3M			R5M			LAC			LAS			LPS			LAI			LPI			LLE			LME			LRS			LUS			L3M			L5M			RW			LW			V_mid_elbow_r			V_mid_elbow_l			V_mid_wrist_r			V_mid_wrist_l			V_mid_trunk_low			V_mid_trunk_upp			
		X1	Y1	Z1	X2	Y2	Z2	X3	Y3	Z3	X4	Y4	Z4	X5	Y5	Z5	X6	Y6	Z6	X7	Y7	Z7	X8	Y8	Z8	X9	Y9	Z9	X10	Y10	Z10	X11	Y11	Z11	X12	Y12	Z12	X13	Y13	Z13	X14	Y14	Z14	X15	Y15	Z15	X16	Y16	Z16	X17	Y17	Z17	X18	Y18	Z18	X19	Y19	Z19	X20	Y20	Z20	X21	Y21	Z21	X22	Y22	Z22	X23	Y23	Z23	X24	Y24	Z24	X25	Y25	Z25	X26	Y26	Z26	X27	Y27	Z27	X28	Y28	Z28	

578	3.847	49.54575	982.69495	-60.30015	-2.46980	823.29724	-47.43955	-41.93382	1119.36560	-69.22928	-162.41762	1008.14246	-56.30494	3.71457	1041.02258	143.49547	-30.96523	860.16083	218.91631	-75.26452	880.84674	232.32581	-47.38111	788.61731	246.06155	-96.83479	807.39374	258.62607	-103.59671	740.75580	275.40970	-137.36319	721.22949	205.06413	81.25491	537.03607	231.31293	42.52201	532.93463	279.94315	97.26061	456.03149	279.70169	56.62003	454.88361	292.16263	0.46615	1028.58582	-251.49043	-38.73544	876.20227	-336.88898	-86.84813	883.37537	-333.72238	-45.29107	800.28656	-364.51819	-100.50214	805.43463	-360.44687	-73.51768	718.70001	-393.01230	-121.87693	704.49219	-337.98016	91.68559	507.15717	-354.55844	44.05035	484.58139	-389.17047	96.45414	410.91534	-395.66983	52.97911	419.21515	-395.69888	-133.96919	299.00949	266.96075	-138.09459	296.96005	-362.06464	
579	3.853	58.44171	982.69556	-59.96912	8.22378	823.42920	-47.29114	-31.84125	1119.41785	-69.75701	-152.28889	1008.21777	-56.68876	14.13254	1040.57300	143.12978	-15.36961	858.20209	217.26318	-59.95945	877.50330	231.68726	-29.48829	785.85291	243.80208	-79.00723	803.17120	257.47427	-84.26677	736.36957	273.44724	-117.75635	716.96289	203.35410	98.90474	529.99921	231.38814	59.96891	526.96283	279.82306	112.46472	448.43283	279.65137	71.89972	448.59573	292.14203	11.59727	1027.33923	-251.68378	-25.10173	873.16016	-335.31357	-73.46605	878.94171	-332.30038	-29.36795	796.72528	-362.01654	-84.73878	800.28625	-357.97116	-55.80542	714.19165	-389.32675	-102.79536	699.24176	-333.51758	107.81610	499.89761	-355.73212	58.96355	478.40201	-389.52441	108.93678	403.09885	-396.13297	65.82990	412.80441	-395.67947	-124.15942	299.24637	266.90579	-128.26575	296.99008	-362.20639	
580	3.860	68.26839	983.38153	-60.03354	17.78975	823.25305	-46.92668	-22.10137	1119.94141	-70.22506	-142.32068	1008.30212	-57.13507	24.34695	1040.12927	142.71744	0.59551	856.13232	215.41144	-44.35647	874.15955	230.87312	-11.19702	783.15546	241.36443	-60.81922	799.07257	256.27145	-64.44576	732.16107	271.44308	-97.80782	712.79407	202.02869	116.36349	522.83936	231.48367	77.32516	520.82056	279.75687	127.69760	440.75543	279.57944	87.15412	442.26862	292.19452	22.74170	1025.94421	-251.95572	-11.52973	869.95276	-333.67969	-60.30373	874.33575	-330.87094	-13.49897	793.01721	-359.30600	-68.93755	795.04401	-355.27359	-37.99025	709.76361	-385.38437	-84.09947	694.48792	-329.26575	123.73910	492.59680	-356.95377	73.71388	472.26291	-389.83160	121.00083	395.35199	-396.60175	78.24483	406.48120	-395.58078	-114.11752	299.44833	266.72192	-118.48593	297.10080	-362.25662	
581	3.867	78.08968	983.95325	-60.12547	28.25116	823.35333	-46.82161	-12.06692	1120.15479	-70.89751	-132.39606	1008.30389	-57.65328	34.51240	1039.59778	142.36440	16.96092	854.05817	213.33389	-27.47749	870.57971	229.10771	7.41004	780.55768	238.88881	-42.15972	795.05011	254.97989	-44.12930	728.16174	269.21832	-78.14967	709.05963	201.34853	133.68355	515.44116	231.27168	94.61887	514.61804	279.62747	142.66667	433.08936	279.41403	102.26010	436.14243	292.57733	33.69138	1024.35107	-252.25911	2.14069	866.67145	-331.99426	-46.27665	869.60449	-329.01358	2.33549	789.34576	-356.48410	-53.18423	789.84766	-352.47192	-19.99340	705.48834	-381.32080	-65.19611	689.87354	-324.86530	139.31607	485.25757	-358.26337	88.06116	466.15234	-390.04810	131.15941	386.41870	-396.95914	90.03024	400.32843	-395.98883	-104.10802	299.69818	266.63333	-108.58223	297.14417	-362.36032	
582	3.873	87.82624	984.48938	-60.24159	38.78092	823.57458	-46.41138	-2.10207	1120.43420	-71.56695	-122.63521	1008.25415	-58.32235	44.80114	1038.91406	142.15312	33.32369	852.16736	211.10016	-11.25046	867.27106	227.81168	26.32031	778.22290	236.31917	-23.25253	791.27844	253.63303	-23.44701	724.35974	266.90155	-58.00795	705.68970	200.03268	150.65735	507.97253	231.28700	111.67637	508.42776	279.58279	157.23784	425.48712	279.37000	116.98441	429.60489	292.40262	44.76772	1022.55859	-252.71849	16.07025	863.26062	-330.02628	-32.38208	865.14612	-327.42004	18.21352	785.65411	-353.36548	-37.29268	784.85498	-349.58502	-1.76684	701.40784	-377.27844	-46.35904	685.41614	-320.32236	154.41663	478.02039	-359.61752	101.91449	460.06250	-390.20673	142.55452	379.41437	-397.30240	101.67181	394.44244	-395.62595	-93.94710	299.80096	266.97897	-98.71928	297.29877	-362.48251	
583	3.880	97.64195	985.12592	-60.41093	49.12291	823.79431	-46.13896	8.18991	1120.74548	-72.39651	-112.94505	1008.20026	-59.02269	55.13843	1038.00562	141.97334	49.81900	850.37732	208.68022	5.06291	864.00128	226.21507	45.46482	776.14087	233.68120	-4.11247	787.52777	252.07912	-2.51080	720.83533	264.43048	-38.15087	702.04456	199.18689	167.25769	500.52695	231.44489	128.46844	502.24658	279.50797	171.34486	417.97440	279.51651	131.39619	423.56351	292.99860	55.96716	1020.68024	-253.13747	30.47050	860.02472	-328.05914	-18.02702	860.98737	-325.81070	34.23685	782.06976	-350.18414	-21.12649	780.24524	-346.61298	16.62685	697.64514	-373.27942	-27.47121	681.27728	-315.58722	169.03368	471.08124	-360.81155	115.25919	454.26532	-390.19897	153.50476	373.01065	-397.56006	112.97576	388.97504	-395.29941	-84.03383	300.17078	266.72449	-88.85809	297.36136	-362.56946	
584	3.887	107.49248	985.63373	-60.41967	59.48083	824.07739	-45.77845	18.50383	1121.18018	-73.07956	-103.28477	1008.01331	-59.84697	65.78068	1036.92505	141.85899	66.28562	848.69427	206.15532	21.35860	860.81146	224.22896	64.77141	774.39728	231.06865	15.50682	784.06744	250.57869	19.64359	717.32581	260.72293	-18.02166	698.70862	197.76846	183.65367	493.15674	231.57890	144.79144	496.16983	279.62027	184.99030	410.81775	280.02866	145.42630	417.56073	293.50220	67.55811	1018.79980	-253.43462	45.47427	856.98291	-326.05045	-3.05783	857.25104	-324.16040	50.58932	778.75775	-346.89426	-4.76167	776.14648	-343.70044	35.16382	694.23596	-369.16815	-8.85971	677.62555	-310.99768	183.22235	464.58511	-361.83661	128.16568	448.90540	-390.05280	164.09874	367.31860	-397.80087	123.92021	384.02087	-394.89548	-73.97836	300.36383	266.53387	-78.97395	297.45062	-362.66443	
585	3.893	117.79489	985.77899	-60.63958	69.85040	824.21838	-45.20782	28.80203	1121.32776	-73.57153	-93.52952	1007.69769	-60.59557	76.64113	1035.81335	141.66145	82.77457	847.32910	203.43915	37.36834	858.01471	221.96312	83.93328	772.98877	228.26323	34.59555	780.86658	248.21037	41.12788	714.42535	257.31787	2.65653	695.65021	195.45726	199.45135	485.95554	231.92889	160.71104	490.42212	279.84756	198.32713	404.03931	280.80469	159.24060	411.98465	294.50677	79.53586	1017.17523	-253.41443	60.78130	854.41699	-324.00525	12.37944	853.83496	-322.51855	67.27000	775.89777	-343.70450	11.93742	772.51605	-340.75974	53.49774	691.39099	-365.06345	9.45256	674.52466	-306.39746	197.10074	458.95328	-362.62781	140.66670	444.22235	-389.72458	174.43614	362.72650	-398.04889	134.67528	379.95496	-394.56390	-64.03903	300.62750	266.46674	-69.07789	297.49429	-362.82248	
586	3.900	127.62881	986.08502	-60.21826	79.97086	824.32800	-44.71418	39.04699	1121.28125	-73.87502	-83.63259	1007.30811	-61.37788	87.58241	1034.64270	141.39326	99.11475	846.19672	200.50520	53.68206	855.28461	219.46823	102.95736	771.79529	225.00795	53.35312	777.92780	245.38063	62.53969	712.12927	253.49614	23.02169	692.83319	192.57895	214.84929	479.05310	232.49734	176.16467	484.97028	280.18179	211.05228	397.83078	281.58502	172.69530	407.01215	295.55331	91.60226	1015.87805	-253.12959	76.21712	852.16779	-322.00961	27.70022	850.87244	-320.95572	84.11678	773.55725	-340.58652	28.85484	769.28992	-337.96848	71.38518	689.20612	-360.83142	27.23574	672.19250	-301.99829	210.63643	454.43079	-363.07486	153.09950	440.54135	-389.39352	185.34521	359.46188	-398.61188	145.76222	376.73987	-394.61020	-54.05642	300.72888	266.23477	-59.14851	297.46060	-362.87424	
587	3.907	138.30557	985.93414	-60.25992	90.54760	824.27222	-44.23670	49.23665	1121.05884	-73.99433	-73.49593	1006.83118	-61.95649	98.68510	1033.52673	141.11192	115.06489	845.20599	197.56828	69.47289	852.61981	217.20219	121.37322	770.77039	221.41176	72.11296	775.08813	242.15248	83.45828	710.19525	249.10458	43.13048	690.20557	188.82661	229.12224	473.04208	233.31047	190.76884	479.93997	280.47110	223.35135	392.76089	282.70059	185.58141	402.75534	296.59464	103.65386	1015.02155	-252.81580	90.89184	851.27734	-319.84753	42.95089	848.23792	-319.22165	100.43191	772.05585	-337.52533	45.48695	766.62646	-335.37573	88.36212	687.74359	-356.72488	44.23227	670.62689	-297.71808	223.78220	451.01678	-362.93140	166.10686	438.25897	-389.48492	197.04778	357.56668	-399.12741	157.72372	374.77872	-395.37616	-44.23209	300.87436	266.12274	-49.12332	297.45612	-362.99777	
